<svg width="47" height="47" viewBox="0 0 47 47" fill="none" xmlns="http://www.w3.org/2000/svg">
<rect x="0.466548" y="0.63531" width="45.7217" height="45.7217" rx="22.8609" fill="white"/>
<path d="M20.7914 22.8734C20.768 22.8734 20.7525 22.8734 20.7291 22.8734C20.6903 22.8656 20.6358 22.8656 20.5892 22.8734C18.3342 22.8034 16.6313 21.0305 16.6313 18.8455C16.6313 16.6216 18.4431 14.8098 20.6669 14.8098C22.8908 14.8098 24.7026 16.6216 24.7026 18.8455C24.6948 21.0305 22.9841 22.8034 20.8147 22.8734C20.8069 22.8734 20.7991 22.8734 20.7914 22.8734ZM20.6669 15.9762C19.0884 15.9762 17.7977 17.267 17.7977 18.8455C17.7977 20.4006 19.0107 21.6526 20.5581 21.707C20.6047 21.6992 20.7058 21.6992 20.8069 21.707C22.331 21.637 23.5284 20.3851 23.5362 18.8455C23.5362 17.267 22.2454 15.9762 20.6669 15.9762Z" fill="#7E92A2"/>
<path d="M26.5299 22.9744C26.5066 22.9744 26.4832 22.9744 26.4599 22.9667C26.1411 22.9978 25.8145 22.7723 25.7834 22.4535C25.7523 22.1347 25.9467 21.8469 26.2655 21.8081C26.3588 21.8003 26.4599 21.8003 26.5454 21.8003C27.6807 21.7381 28.5672 20.805 28.5672 19.6619C28.5672 18.48 27.6107 17.5236 26.4288 17.5236C26.11 17.5314 25.8456 17.267 25.8456 16.9482C25.8456 16.6294 26.11 16.365 26.4288 16.365C28.2483 16.365 29.7335 17.8502 29.7335 19.6697C29.7335 21.4582 28.3339 22.9045 26.5532 22.9744C26.5454 22.9744 26.5377 22.9744 26.5299 22.9744Z" fill="#7E92A2"/>
<path d="M20.7991 31.3723C19.2751 31.3723 17.7432 30.9835 16.5846 30.2059C15.5038 29.4906 14.9128 28.5108 14.9128 27.4455C14.9128 26.3802 15.5038 25.3927 16.5846 24.6696C18.9174 23.1222 22.6964 23.1222 25.0136 24.6696C26.0867 25.3849 26.6854 26.3647 26.6854 27.43C26.6854 28.4953 26.0944 29.4828 25.0136 30.2059C23.8472 30.9835 22.3232 31.3723 20.7991 31.3723ZM17.23 25.6493C16.4836 26.147 16.0792 26.7846 16.0792 27.4533C16.0792 28.1142 16.4913 28.7519 17.23 29.2417C19.1662 30.5403 22.432 30.5403 24.3682 29.2417C25.1147 28.7441 25.519 28.1065 25.519 27.4378C25.519 26.7768 25.1069 26.1392 24.3682 25.6493C22.432 24.3585 19.1662 24.3585 17.23 25.6493Z" fill="#7E92A2"/>
<path d="M27.9295 29.9727C27.6574 29.9727 27.4163 29.786 27.3619 29.5061C27.2997 29.1873 27.5019 28.8841 27.8129 28.8141C28.3028 28.713 28.7538 28.5186 29.1037 28.2464C29.5469 27.9121 29.788 27.4922 29.788 27.049C29.788 26.6057 29.5469 26.1858 29.1115 25.8593C28.7693 25.5949 28.3417 25.4083 27.8362 25.2916C27.5252 25.2216 27.323 24.9106 27.393 24.5918C27.463 24.2808 27.774 24.0786 28.0928 24.1486C28.7615 24.2963 29.3447 24.5607 29.8191 24.9262C30.5422 25.4705 30.9543 26.2403 30.9543 27.049C30.9543 27.8576 30.5344 28.6274 29.8113 29.1795C29.3292 29.5528 28.7227 29.8249 28.054 29.9571C28.0073 29.9727 27.9684 29.9727 27.9295 29.9727Z" fill="#7E92A2"/>
<rect x="0.466548" y="0.63531" width="45.7217" height="45.7217" rx="22.8609" stroke="#EAEEF4" stroke-width="0.933097"/>
</svg>
