<svg width="47" height="47" viewBox="0 0 47 47" fill="none" xmlns="http://www.w3.org/2000/svg">
<rect x="0.466548" y="0.804027" width="45.7217" height="45.7217" rx="22.8609" fill="white"/>
<path d="M19.8896 18.4776C19.5708 18.4776 19.3064 18.2133 19.3064 17.8945V15.5617C19.3064 15.2429 19.5708 14.9785 19.8896 14.9785C20.2084 14.9785 20.4728 15.2429 20.4728 15.5617V17.8945C20.4728 18.2133 20.2084 18.4776 19.8896 18.4776Z" fill="#7E92A2"/>
<path d="M26.1102 18.4776C25.7914 18.4776 25.5271 18.2133 25.5271 17.8945V15.5617C25.5271 15.2429 25.7914 14.9785 26.1102 14.9785C26.4291 14.9785 26.6934 15.2429 26.6934 15.5617V17.8945C26.6934 18.2133 26.4291 18.4776 26.1102 18.4776Z" fill="#7E92A2"/>
<path d="M20.2784 25.2815C20.1773 25.2815 20.0762 25.2582 19.9829 25.2193C19.8818 25.1804 19.8041 25.126 19.7263 25.056C19.5863 24.9082 19.5008 24.7138 19.5008 24.5039C19.5008 24.4028 19.5241 24.3017 19.563 24.2084C19.6019 24.1151 19.6563 24.0296 19.7263 23.9518C19.8041 23.8818 19.8818 23.8274 19.9829 23.7885C20.2628 23.6719 20.6128 23.7341 20.8305 23.9518C20.9704 24.0996 21.056 24.3017 21.056 24.5039C21.056 24.5506 21.0482 24.605 21.0404 24.6594C21.0326 24.7061 21.0171 24.7527 20.9938 24.7994C20.9782 24.846 20.9549 24.8927 20.9238 24.9393C20.9005 24.9782 20.8616 25.0171 20.8305 25.056C20.6827 25.1959 20.4806 25.2815 20.2784 25.2815Z" fill="#7E92A2"/>
<path d="M22.9999 25.2815C22.8988 25.2815 22.7978 25.2582 22.7044 25.2193C22.6034 25.1804 22.5256 25.1259 22.4478 25.056C22.3079 24.9082 22.2223 24.7138 22.2223 24.5039C22.2223 24.4028 22.2457 24.3017 22.2846 24.2084C22.3234 24.1151 22.3779 24.0296 22.4478 23.9518C22.5256 23.8818 22.6034 23.8274 22.7044 23.7885C22.9844 23.6641 23.3343 23.7341 23.552 23.9518C23.692 24.0996 23.7775 24.3017 23.7775 24.5039C23.7775 24.5505 23.7697 24.605 23.762 24.6594C23.7542 24.7061 23.7386 24.7527 23.7153 24.7994C23.6997 24.846 23.6764 24.8927 23.6453 24.9393C23.622 24.9782 23.5831 25.0171 23.552 25.056C23.4043 25.1959 23.2021 25.2815 22.9999 25.2815Z" fill="#7E92A2"/>
<path d="M25.7215 25.2815C25.6204 25.2815 25.5193 25.2582 25.426 25.2193C25.3249 25.1804 25.2471 25.1259 25.1694 25.056C25.1383 25.0171 25.1072 24.9782 25.0761 24.9393C25.045 24.8927 25.0216 24.846 25.0061 24.7994C24.9828 24.7527 24.9672 24.7061 24.9594 24.6594C24.9517 24.605 24.9439 24.5505 24.9439 24.5039C24.9439 24.3017 25.0294 24.0996 25.1694 23.9518C25.2471 23.8818 25.3249 23.8274 25.426 23.7885C25.7137 23.6641 26.0558 23.7341 26.2735 23.9518C26.4135 24.0996 26.499 24.3017 26.499 24.5039C26.499 24.5505 26.4913 24.605 26.4835 24.6594C26.4757 24.7061 26.4602 24.7527 26.4368 24.7994C26.4213 24.846 26.398 24.8927 26.3669 24.9393C26.3435 24.9782 26.3046 25.0171 26.2735 25.056C26.1258 25.1959 25.9236 25.2815 25.7215 25.2815Z" fill="#7E92A2"/>
<path d="M20.2784 28.003C20.1773 28.003 20.0762 27.9797 19.9829 27.9408C19.8896 27.9019 19.8041 27.8475 19.7263 27.7775C19.5863 27.6298 19.5008 27.4276 19.5008 27.2254C19.5008 27.1243 19.5241 27.0233 19.563 26.9299C19.6019 26.8289 19.6563 26.7433 19.7263 26.6734C20.014 26.3856 20.5428 26.3856 20.8305 26.6734C20.9704 26.8211 21.056 27.0233 21.056 27.2254C21.056 27.4276 20.9704 27.6298 20.8305 27.7775C20.6827 27.9175 20.4806 28.003 20.2784 28.003Z" fill="#7E92A2"/>
<path d="M22.9999 28.003C22.7978 28.003 22.5956 27.9175 22.4478 27.7775C22.3079 27.6298 22.2223 27.4276 22.2223 27.2254C22.2223 27.1243 22.2457 27.0233 22.2846 26.9299C22.3234 26.8289 22.3779 26.7433 22.4478 26.6734C22.7356 26.3856 23.2643 26.3856 23.552 26.6734C23.622 26.7433 23.6764 26.8289 23.7153 26.9299C23.7542 27.0233 23.7775 27.1243 23.7775 27.2254C23.7775 27.4276 23.692 27.6298 23.552 27.7775C23.4043 27.9175 23.2021 28.003 22.9999 28.003Z" fill="#7E92A2"/>
<path d="M25.7215 28.003C25.5193 28.003 25.3171 27.9175 25.1694 27.7775C25.0994 27.7075 25.045 27.622 25.0061 27.5209C24.9672 27.4276 24.9439 27.3265 24.9439 27.2255C24.9439 27.1244 24.9672 27.0233 25.0061 26.93C25.045 26.8289 25.0994 26.7434 25.1694 26.6734C25.3482 26.4945 25.6204 26.409 25.8692 26.4634C25.9236 26.4712 25.9703 26.4867 26.0169 26.5101C26.0636 26.5256 26.1103 26.549 26.1569 26.5801C26.1958 26.6034 26.2347 26.6423 26.2735 26.6734C26.4135 26.8211 26.499 27.0233 26.499 27.2255C26.499 27.4276 26.4135 27.6298 26.2735 27.7775C26.1258 27.9175 25.9236 28.003 25.7215 28.003Z" fill="#7E92A2"/>
<path d="M29.6094 21.6579H16.3905C16.0717 21.6579 15.8073 21.3935 15.8073 21.0747C15.8073 20.7559 16.0717 20.4915 16.3905 20.4915H29.6094C29.9282 20.4915 30.1925 20.7559 30.1925 21.0747C30.1925 21.3935 29.9282 21.6579 29.6094 21.6579Z" fill="#7E92A2"/>
<path d="M26.1102 31.6965H19.8896C17.0514 31.6965 15.4185 30.0636 15.4185 27.2254V20.616C15.4185 17.7778 17.0514 16.1449 19.8896 16.1449H26.1102C28.9484 16.1449 30.5813 17.7778 30.5813 20.616V27.2254C30.5813 30.0636 28.9484 31.6965 26.1102 31.6965ZM19.8896 17.3113C17.6657 17.3113 16.5849 18.3921 16.5849 20.616V27.2254C16.5849 29.4493 17.6657 30.5301 19.8896 30.5301H26.1102C28.3341 30.5301 29.415 29.4493 29.415 27.2254V20.616C29.415 18.3921 28.3341 17.3113 26.1102 17.3113H19.8896Z" fill="#7E92A2"/>
<rect x="0.466548" y="0.804027" width="45.7217" height="45.7217" rx="22.8609" stroke="#EAEEF4" stroke-width="0.933097"/>
</svg>
