<svg width="47" height="48" viewBox="0 0 47 48" fill="none" xmlns="http://www.w3.org/2000/svg">
<rect x="0.466548" y="1.38839" width="45.7217" height="45.7217" rx="22.8609" fill="white"/>
<path d="M23.3429 30.8821C21.5312 30.8821 19.7194 30.5944 18.001 30.019C17.3478 29.7935 16.8501 29.3347 16.6324 28.736C16.4069 28.1372 16.4847 27.4763 16.8424 26.8853L17.7366 25.4001C17.9232 25.0891 18.0943 24.4671 18.0943 24.1016V21.8544C18.0943 18.9618 20.4503 16.6057 23.3429 16.6057C26.2355 16.6057 28.5916 18.9618 28.5916 21.8544V24.1016C28.5916 24.4593 28.7627 25.0891 28.9493 25.4079L29.8357 26.8853C30.1701 27.4452 30.2323 28.1217 30.0068 28.736C29.7813 29.3503 29.2914 29.8168 28.6771 30.019C26.9665 30.5944 25.1547 30.8821 23.3429 30.8821ZM23.3429 17.7721C21.0957 17.7721 19.2606 19.5994 19.2606 21.8544V24.1016C19.2606 24.6692 19.0274 25.509 18.7397 25.9989L17.8454 27.4841C17.6744 27.7718 17.6277 28.075 17.7288 28.3316C17.8221 28.596 18.0554 28.7982 18.3742 28.907C21.6245 29.9956 25.0692 29.9956 28.3195 28.907C28.5994 28.8137 28.8171 28.6038 28.9182 28.3238C29.0193 28.0439 28.9959 27.7407 28.8404 27.4841L27.9462 25.9989C27.6507 25.4935 27.4252 24.6614 27.4252 24.0938V21.8544C27.4252 19.5994 25.5979 17.7721 23.3429 17.7721Z" fill="#7E92A2"/>
<path d="M24.7892 17.982C24.7348 17.982 24.6804 17.9743 24.6259 17.9587C24.4004 17.8965 24.1827 17.8498 23.9728 17.8187C23.3118 17.7332 22.6742 17.7799 22.0755 17.9587C21.8578 18.0287 21.6245 17.9587 21.4767 17.7954C21.329 17.6321 21.2823 17.3988 21.3679 17.1889C21.6867 16.3724 22.4643 15.8359 23.3507 15.8359C24.2372 15.8359 25.0147 16.3647 25.3335 17.1889C25.4113 17.3988 25.3724 17.6321 25.2247 17.7954C25.108 17.9198 24.9448 17.982 24.7892 17.982Z" fill="#7E92A2"/>
<path d="M23.3429 32.655C22.5731 32.655 21.8267 32.3439 21.2823 31.7996C20.738 31.2553 20.427 30.5089 20.427 29.739H21.5934C21.5934 30.1978 21.78 30.6488 22.1066 30.9754C22.4332 31.302 22.8842 31.4886 23.3429 31.4886C24.3071 31.4886 25.0925 30.7032 25.0925 29.739H26.2589C26.2589 31.3486 24.9525 32.655 23.3429 32.655Z" fill="#7E92A2"/>
<rect x="24.2606" y="15.8514" width="7.46477" height="7.46477" rx="3.73239" fill="#3772FF" stroke="white" stroke-width="1.86619"/>
<rect x="0.466548" y="1.38839" width="45.7217" height="45.7217" rx="22.8609" stroke="#EAEEF4" stroke-width="0.933097"/>
</svg>
