<svg width="47" height="48" viewBox="0 0 47 48" fill="none" xmlns="http://www.w3.org/2000/svg">
<rect x="0.466548" y="1.21966" width="45.7217" height="45.7217" rx="22.8609" fill="white"/>
<path d="M29.2205 29.3984H22.1679C21.8179 29.3984 21.5302 29.1107 21.5302 28.7608C21.5302 28.4109 21.8179 28.1232 22.1679 28.1232H29.2205C29.5704 28.1232 29.8581 28.4109 29.8581 28.7608C29.8581 29.1185 29.5704 29.3984 29.2205 29.3984Z" fill="#7E92A2"/>
<path d="M29.2205 24.5074H22.1679C21.8179 24.5074 21.5302 24.2197 21.5302 23.8698C21.5302 23.5199 21.8179 23.2322 22.1679 23.2322H29.2205C29.5704 23.2322 29.8581 23.5199 29.8581 23.8698C29.8581 24.2197 29.5704 24.5074 29.2205 24.5074Z" fill="#7E92A2"/>
<path d="M29.2205 19.6087H22.1679C21.8179 19.6087 21.5302 19.321 21.5302 18.9711C21.5302 18.6212 21.8179 18.3334 22.1679 18.3334H29.2205C29.5704 18.3334 29.8581 18.6212 29.8581 18.9711C29.8581 19.321 29.5704 19.6087 29.2205 19.6087Z" fill="#7E92A2"/>
<path d="M17.4868 20.6662C17.3157 20.6662 17.1525 20.5962 17.0358 20.4796L16.3282 19.772C16.0794 19.5231 16.0794 19.1188 16.3282 18.87C16.577 18.6212 16.9814 18.6212 17.2302 18.87L17.4868 19.1266L19.1508 17.4626C19.3997 17.2137 19.804 17.2137 20.0528 17.4626C20.3017 17.7114 20.3017 18.1157 20.0528 18.3646L17.9378 20.4796C17.8134 20.5962 17.6579 20.6662 17.4868 20.6662Z" fill="#7E92A2"/>
<path d="M17.4868 25.5649C17.3235 25.5649 17.1602 25.5027 17.0358 25.3783L16.3282 24.6707C16.0794 24.4219 16.0794 24.0176 16.3282 23.7687C16.577 23.5199 16.9814 23.5199 17.2302 23.7687L17.4868 24.0253L19.1508 22.3613C19.3997 22.1125 19.804 22.1125 20.0528 22.3613C20.3017 22.6101 20.3017 23.0145 20.0528 23.2633L17.9378 25.3783C17.8134 25.5027 17.6501 25.5649 17.4868 25.5649Z" fill="#7E92A2"/>
<path d="M17.4868 30.2304C17.3235 30.2304 17.1602 30.1682 17.0358 30.0438L16.3282 29.3362C16.0794 29.0874 16.0794 28.683 16.3282 28.4342C16.577 28.1854 16.9814 28.1854 17.2302 28.4342L17.4868 28.6908L19.1508 27.0268C19.3997 26.778 19.804 26.778 20.0528 27.0268C20.3017 27.2756 20.3017 27.68 20.0528 27.9288L17.9378 30.0438C17.8134 30.1682 17.6501 30.2304 17.4868 30.2304Z" fill="#7E92A2"/>
<rect x="0.466548" y="1.21966" width="45.7217" height="45.7217" rx="22.8609" stroke="#EAEEF4" stroke-width="0.933097"/>
</svg>
