<svg width="47" height="48" viewBox="0 0 47 48" fill="none" xmlns="http://www.w3.org/2000/svg">
<rect x="0.466548" y="0.972774" width="45.7217" height="45.7217" rx="22.8609" fill="white"/>
<path d="M23 26.4223C21.3905 26.4223 20.0841 25.116 20.0841 23.5064C20.0841 21.8968 21.3905 20.5904 23 20.5904C24.6096 20.5904 25.916 21.8968 25.916 23.5064C25.916 25.116 24.6096 26.4223 23 26.4223ZM23 21.7568C22.0358 21.7568 21.2505 22.5422 21.2505 23.5064C21.2505 24.4706 22.0358 25.2559 23 25.2559C23.9642 25.2559 24.7496 24.4706 24.7496 23.5064C24.7496 22.5422 23.9642 21.7568 23 21.7568Z" fill="#7E92A2"/>
<path d="M25.4961 31.4299C25.3328 31.4299 25.1695 31.4066 25.0062 31.3677C24.5241 31.2355 24.1198 30.9323 23.8632 30.5046L23.7698 30.3491C23.3111 29.5559 22.6812 29.5559 22.2225 30.3491L22.1369 30.4968C21.8803 30.9323 21.476 31.2433 20.9939 31.3677C20.504 31.4999 19.9986 31.4299 19.5709 31.1733L18.2335 30.4035C17.7591 30.1314 17.417 29.6881 17.2693 29.1516C17.1293 28.6151 17.1993 28.063 17.4714 27.5887C17.6969 27.1921 17.7592 26.8344 17.627 26.6089C17.4948 26.3834 17.1604 26.2512 16.7016 26.2512C15.5664 26.2512 14.6411 25.3259 14.6411 24.1906V22.8221C14.6411 21.6868 15.5664 20.7615 16.7016 20.7615C17.1604 20.7615 17.4948 20.6293 17.627 20.4038C17.7592 20.1783 17.7047 19.8206 17.4714 19.4241C17.1993 18.9497 17.1293 18.3899 17.2693 17.8611C17.4092 17.3246 17.7514 16.8814 18.2335 16.6092L19.5787 15.8394C20.4574 15.3184 21.6159 15.6217 22.1447 16.5159L22.238 16.6714C22.6968 17.4646 23.3266 17.4646 23.7854 16.6714L23.8709 16.5237C24.3997 15.6217 25.5583 15.3184 26.4447 15.8472L27.7822 16.617C28.2565 16.8892 28.5986 17.3324 28.7464 17.8689C28.8863 18.4054 28.8163 18.9575 28.5442 19.4318C28.3187 19.8284 28.2565 20.1861 28.3887 20.4116C28.5209 20.6371 28.8552 20.7693 29.314 20.7693C30.4493 20.7693 31.3746 21.6946 31.3746 22.8299V24.1984C31.3746 25.3337 30.4493 26.259 29.314 26.259C28.8552 26.259 28.5209 26.3912 28.3887 26.6167C28.2565 26.8422 28.3109 27.1999 28.5442 27.5964C28.8163 28.0708 28.8941 28.6306 28.7464 29.1594C28.6064 29.6959 28.2643 30.1391 27.7822 30.4113L26.4369 31.1811C26.1415 31.3444 25.8227 31.4299 25.4961 31.4299ZM23 28.5529C23.6921 28.5529 24.3375 28.9883 24.7807 29.7581L24.8662 29.9059C24.9595 30.0691 25.1151 30.1858 25.3017 30.2324C25.4883 30.2791 25.6749 30.2558 25.8304 30.1625L27.1756 29.3849C27.3778 29.2682 27.5333 29.0738 27.5955 28.8406C27.6577 28.6073 27.6266 28.3662 27.51 28.1641C27.0668 27.402 27.0124 26.6167 27.3545 26.018C27.6966 25.4192 28.4042 25.0771 29.2907 25.0771C29.7883 25.0771 30.1849 24.6805 30.1849 24.1829V22.8143C30.1849 22.3244 29.7883 21.9201 29.2907 21.9201C28.4042 21.9201 27.6966 21.578 27.3545 20.9792C27.0124 20.3805 27.0668 19.5951 27.51 18.8331C27.6266 18.6309 27.6577 18.3899 27.5955 18.1566C27.5333 17.9233 27.3856 17.7367 27.1834 17.6123L25.8382 16.8425C25.5038 16.6403 25.0606 16.757 24.8585 17.0991L24.7729 17.2468C24.3297 18.0166 23.6843 18.4521 22.9923 18.4521C22.3002 18.4521 21.6548 18.0166 21.2116 17.2468L21.1261 17.0913C20.9317 16.7647 20.4962 16.6481 20.1619 16.8425L18.8167 17.6201C18.6145 17.7367 18.459 17.9311 18.3968 18.1644C18.3346 18.3977 18.3657 18.6387 18.4823 18.8409C18.9255 19.6029 18.98 20.3883 18.6378 20.987C18.2957 21.5857 17.5881 21.9279 16.7016 21.9279C16.204 21.9279 15.8074 22.3244 15.8074 22.8221V24.1906C15.8074 24.6805 16.204 25.0849 16.7016 25.0849C17.5881 25.0849 18.2957 25.427 18.6378 26.0257C18.98 26.6245 18.9255 27.4098 18.4823 28.1718C18.3657 28.374 18.3346 28.6151 18.3968 28.8483C18.459 29.0816 18.6067 29.2682 18.8089 29.3926L20.1541 30.1625C20.3174 30.2635 20.5118 30.2869 20.6906 30.2402C20.8772 30.1936 21.0328 30.0691 21.1338 29.9059L21.2194 29.7581C21.6626 28.9961 22.308 28.5529 23 28.5529Z" fill="#7E92A2"/>
<rect x="0.466548" y="0.972774" width="45.7217" height="45.7217" rx="22.8609" stroke="#EAEEF4" stroke-width="0.933097"/>
</svg>
