<svg width="47" height="48" viewBox="0 0 47 48" fill="none" xmlns="http://www.w3.org/2000/svg">
<rect x="0.466548" y="1.05093" width="45.7217" height="45.7217" rx="22.8609" fill="white"/>
<path d="M15.9437 18.8875C15.9437 18.0287 16.6399 17.3325 17.4987 17.3325H28.3837C29.2425 17.3325 29.9387 18.0287 29.9387 18.8875V29.7725C29.9387 30.6313 29.2425 31.3275 28.3837 31.3275H17.4987C16.6399 31.3275 15.9437 30.6313 15.9437 29.7725V18.8875ZM28.7725 18.4987H17.11V30.1612H28.7725V18.4987ZM22.9412 20.4425C23.3706 20.4425 23.33 20.7906 23.33 21.22V27.44C23.33 27.8694 23.3706 28.2175 22.9412 28.2175C22.5118 28.2175 22.5525 27.8694 22.5525 27.44V21.22C22.5525 20.7906 22.5118 20.4425 22.9412 20.4425ZM26.0512 21.9975C26.4806 21.9975 26.44 22.3456 26.44 22.775V27.44C26.44 27.8694 26.4806 28.2175 26.0512 28.2175C25.6218 28.2175 25.6625 27.8694 25.6625 27.44V22.775C25.6625 22.3456 25.6218 21.9975 26.0512 21.9975ZM19.8312 23.5525C20.2606 23.5525 20.22 23.9006 20.22 24.33V27.44C20.22 27.8694 20.2606 28.2175 19.8312 28.2175C19.4018 28.2175 19.4425 27.8694 19.4425 27.44V24.33C19.4425 23.9006 19.4018 23.5525 19.8312 23.5525Z" fill="#7E92A2"/>
<rect x="0.466548" y="1.05093" width="45.7217" height="45.7217" rx="22.8609" stroke="#EAEEF4" stroke-width="0.933097"/>
</svg>
