<svg width="14" height="17" viewBox="0 0 14 17" fill="none" xmlns="http://www.w3.org/2000/svg">
<path d="M0.752594 1.75267C0.752594 0.854982 1.48032 0.127258 2.37801 0.127258H8.87966C9.09521 0.127258 9.30192 0.212883 9.45433 0.365295L13.5179 4.42883C13.6703 4.58124 13.7559 4.78796 13.7559 5.0035V14.756C13.7559 15.6537 13.0282 16.3814 12.1305 16.3814H2.37801C1.48032 16.3814 0.752594 15.6537 0.752594 14.756V1.75267ZM11.7939 5.0035L8.87966 2.08931V5.0035H11.7939ZM7.25425 1.75267L2.37801 1.75267V14.756H12.1305V6.62891H8.06696C7.61811 6.62891 7.25425 6.26505 7.25425 5.81621V1.75267ZM7.25425 8.25433C7.70309 8.25433 8.06696 8.61819 8.06696 9.06703V9.87974H8.87966C9.32851 9.87974 9.69237 10.2436 9.69237 10.6924C9.69237 11.1413 9.32851 11.5052 8.87966 11.5052H8.06696V12.3179C8.06696 12.7667 7.70309 13.1306 7.25425 13.1306C6.8054 13.1306 6.44154 12.7667 6.44154 12.3179V11.5052H5.62884C5.17999 11.5052 4.81613 11.1413 4.81613 10.6924C4.81613 10.2436 5.17999 9.87974 5.62884 9.87974H6.44154V9.06703C6.44154 8.61819 6.8054 8.25433 7.25425 8.25433Z" fill="white"/>
</svg>
